<svg version="1.1" id="Layer_1" xmlns="http://www.w3.org/2000/svg" xmlns:xlink="http://www.w3.org/1999/xlink" x="0px" y="0px"
	 width="100%" viewBox="0 0 512 512" enable-background="new 0 0 512 512" xml:space="preserve">
<path fill="#FFFFFF" opacity="1.000000" stroke="none" 
	d="
M276.000000,513.000000 
	C184.022324,513.000000 92.544647,513.000000 1.033484,513.000000 
	C1.033484,342.397308 1.033484,171.794586 1.033484,1.095938 
	C171.561035,1.095938 342.122131,1.095938 512.841614,1.095938 
	C512.841614,171.666550 512.841614,342.333252 512.841614,513.000000 
	C434.127899,513.000000 355.313934,513.000000 276.000000,513.000000 
M65.027733,366.918640 
	C63.435387,381.212952 75.854851,393.397278 90.836082,393.187164 
	C129.740280,392.641571 168.661484,392.672119 207.566879,393.173431 
	C222.329712,393.363647 235.080811,380.813660 232.979889,365.111664 
	C232.966370,360.657471 233.117142,356.195526 232.906708,351.750671 
	C232.394592,340.933685 224.946991,332.186432 214.531403,329.251709 
	C215.167252,328.816772 215.746857,328.231445 216.447372,327.969452 
	C227.053986,324.002502 232.565125,316.345581 234.057648,305.021484 
	C246.983109,305.016815 259.908569,305.012177 272.974518,305.935852 
	C272.983002,352.220490 272.990570,398.505157 273.003632,444.789795 
	C273.004089,446.453888 272.886475,448.142761 273.121735,449.777191 
	C273.714600,453.895813 276.163177,456.736084 280.297272,456.837860 
	C291.058746,457.102692 301.831085,456.926880 312.694397,456.926880 
	C312.694397,451.419830 312.694397,446.367493 312.694397,440.812317 
	C304.670410,440.812317 296.940552,440.812317 289.000061,440.812317 
	C289.000061,432.830078 288.991180,425.353912 289.001587,417.877716 
	C289.054016,380.254242 289.111420,342.630737 290.083435,305.002167 
	C305.684937,304.996704 321.286407,304.991241 336.971191,305.911926 
	C336.986572,308.572723 336.948212,311.235077 337.026581,313.894012 
	C337.385223,326.069031 347.946838,336.833374 360.142975,336.932831 
	C382.094238,337.111877 404.048920,337.107666 426.000305,336.938141 
	C437.893768,336.846313 448.606079,326.161346 448.928894,314.294922 
	C449.132202,306.821289 448.906372,299.335968 448.957092,291.276306 
	C449.046387,290.897339 449.135681,290.518402 449.883545,289.971954 
	C474.495728,273.102112 487.416443,249.555527 488.862701,219.956421 
	C489.993195,196.820328 482.252411,176.385345 467.137085,158.996231 
	C457.417511,147.814575 445.756836,139.058411 430.720703,134.287598 
	C425.152069,132.866898 419.583435,131.446213 413.477997,129.513107 
	C413.311829,129.047043 413.111633,128.590073 412.984375,128.113617 
	C402.663727,89.482193 380.263336,60.157970 345.032318,41.115685 
	C317.476257,26.221695 287.956726,21.568499 257.159943,27.156624 
	C225.670288,32.870480 199.101059,47.773273 178.207367,72.204300 
	C172.727905,78.611427 167.932709,85.603737 162.102432,92.082558 
	C156.797958,91.167130 151.493500,90.251694 145.300934,89.107880 
	C127.161102,89.500931 113.140572,97.041748 103.381874,113.341393 
	C101.493080,118.887604 99.604286,124.433815 97.051392,130.308014 
	C95.291641,130.743988 93.530151,131.173065 91.772385,131.616943 
	C39.741688,144.755661 11.429912,200.093826 31.474827,249.803452 
	C38.286228,266.695160 48.963867,280.601624 64.945328,291.022858 
	C65.017921,294.694855 65.090515,298.366852 65.028320,302.919006 
	C64.923218,315.620056 69.801750,323.030243 81.379501,327.958344 
	C82.192284,328.304321 82.713326,329.335693 82.592316,330.022156 
	C72.088638,333.416168 65.574463,341.328979 65.106094,351.647797 
	C64.888855,356.433960 65.129379,361.240906 65.027733,366.918640 
M448.880585,443.873871 
	C448.903137,434.555237 449.175537,425.228882 448.886719,415.919922 
	C448.503357,403.563629 438.444122,393.286743 426.148010,393.126709 
	C406.183289,392.866852 386.211456,393.151947 365.318298,393.038147 
	C363.654327,393.026276 361.989594,392.974945 360.326538,393.008850 
	C348.150543,393.256927 337.228790,403.786438 337.074860,415.935211 
	C336.861877,432.742676 336.835754,449.557800 337.093842,466.364044 
	C337.273010,478.030457 347.990204,488.793549 359.637268,488.914215 
	C381.937531,489.145325 404.243896,489.153168 426.543762,488.901886 
	C437.712280,488.776031 448.327118,478.353241 448.876251,467.221588 
	C449.244415,459.757904 448.852081,452.256683 448.880585,443.873871 
z"/>
<path fill="#8ACCE7" opacity="1.000000" stroke="none" 
	d="
M336.887939,304.985809 
	C321.286407,304.991241 305.684937,304.996704 289.557861,304.556702 
	C289.032318,301.854034 289.032318,299.596832 289.032318,296.819855 
	C297.329315,296.819855 305.043640,296.819855 312.593384,296.819855 
	C312.593384,291.234436 312.593384,286.188873 312.593384,280.999939 
	C301.723511,280.999939 291.259735,280.999939 280.795959,280.999939 
	C270.247375,280.999939 259.698792,280.999939 249.278107,280.999939 
	C249.278107,286.737152 249.278107,291.661682 249.278107,297.094025 
	C257.263672,297.094025 264.986267,297.094025 272.834015,297.094025 
	C272.834015,300.075043 272.834015,302.541290 272.834015,305.007538 
	C259.908569,305.012177 246.983109,305.016815 233.548676,304.675354 
	C232.979904,303.578613 232.920090,302.828033 232.914886,301.607361 
	C232.979568,297.319427 232.946487,293.500885 233.008606,289.683899 
	C233.142715,281.440796 229.742218,274.842712 223.327728,269.929932 
	C220.617020,267.853821 217.308273,266.558594 214.621323,264.695404 
	C227.914474,260.012421 233.470551,251.810959 232.913269,237.609436 
	C232.974487,232.646637 233.117523,228.149109 232.959366,223.662201 
	C232.546906,211.960052 222.115723,201.140060 210.426880,201.086548 
	C169.492477,200.899185 128.556213,200.903976 87.621727,201.081879 
	C75.928658,201.132675 65.443298,211.922989 65.048027,223.608627 
	C64.885109,228.424988 65.099678,233.254135 65.091797,238.516205 
	C65.271233,241.742371 65.129906,244.622559 65.798645,247.300476 
	C68.159157,256.752960 74.911560,261.926788 83.449371,265.180298 
	C71.645279,269.654510 65.186356,277.625519 64.813622,290.124939 
	C48.963867,280.601624 38.286228,266.695160 31.474827,249.803452 
	C11.429912,200.093826 39.741688,144.755661 91.772385,131.616943 
	C93.530151,131.173065 95.291641,130.743988 97.850159,130.161392 
	C105.245903,129.694824 111.861359,128.903992 118.435692,129.161774 
	C129.162094,129.582352 128.885254,129.812546 131.276413,118.944740 
	C132.215454,114.676773 130.681656,114.060539 127.204735,113.953163 
	C119.446594,113.713562 111.694069,113.292160 103.939255,112.944824 
	C113.140572,97.041748 127.161102,89.500931 145.708527,89.575531 
	C143.681107,95.632179 141.246078,101.221161 138.577805,107.345512 
	C143.789398,109.320450 148.509140,111.108994 153.612930,113.043083 
	C156.786316,105.905563 159.804794,99.116440 162.823273,92.327309 
	C167.932709,85.603737 172.727905,78.611427 178.207367,72.204300 
	C199.101059,47.773273 225.670288,32.870480 257.159943,27.156624 
	C287.956726,21.568499 317.476257,26.221695 345.032318,41.115685 
	C380.263336,60.157970 402.663727,89.482193 412.984375,128.113617 
	C413.111633,128.590073 413.311829,129.047043 413.714447,130.201416 
	C414.681519,137.259888 415.250092,143.656693 416.289856,149.975983 
	C416.480469,151.134567 418.575897,152.802307 419.809235,152.817261 
	C424.025146,152.868332 428.248749,152.287354 432.763824,151.923767 
	C432.211243,145.828705 431.712189,140.324265 431.213135,134.819824 
	C445.756836,139.058411 457.417511,147.814575 467.137085,158.996231 
	C482.252411,176.385345 489.993195,196.820328 488.862701,219.956421 
	C487.416443,249.555527 474.495728,273.102112 449.465942,289.579865 
	C449.027130,280.868103 449.152893,272.544830 448.950378,264.229553 
	C448.645386,251.706818 438.459564,241.221237 426.004822,241.084885 
	C406.373840,240.869934 386.738037,241.096298 366.643494,241.072235 
	C365.350708,241.002609 364.513519,241.055435 363.687531,240.981934 
	C348.285370,239.611694 336.077271,252.652298 336.858643,267.553040 
	C337.511139,279.996948 336.925354,292.505737 336.887939,304.985809 
z"/>
<path fill="#EEDC9A" opacity="1.000000" stroke="none" 
	d="
M336.929565,305.448853 
	C336.925354,292.505737 337.511139,279.996948 336.858643,267.553040 
	C336.077271,252.652298 348.285370,239.611694 363.687531,240.981934 
	C364.513519,241.055435 365.350708,241.002609 366.872467,241.324158 
	C375.930511,243.705658 381.428009,249.057892 384.890533,256.753387 
	C390.025116,268.165039 398.760834,273.580017 411.352875,273.061035 
	C417.316589,272.815247 423.426727,272.480682 429.257690,273.457306 
	C439.570282,275.184479 445.440063,282.401428 448.873047,291.855896 
	C448.906372,299.335968 449.132202,306.821289 448.928894,314.294922 
	C448.606079,326.161346 437.893768,336.846313 426.000305,336.938141 
	C404.048920,337.107666 382.094238,337.111877 360.142975,336.932831 
	C347.946838,336.833374 337.385223,326.069031 337.026581,313.894012 
	C336.948212,311.235077 336.986572,308.572723 336.929565,305.448853 
z"/>
<path fill="#EEDC9A" opacity="1.000000" stroke="none" 
	d="
M448.800049,444.772278 
	C448.852081,452.256683 449.244415,459.757904 448.876251,467.221588 
	C448.327118,478.353241 437.712280,488.776031 426.543762,488.901886 
	C404.243896,489.153168 381.937531,489.145325 359.637268,488.914215 
	C347.990204,488.793549 337.273010,478.030457 337.093842,466.364044 
	C336.835754,449.557800 336.861877,432.742676 337.074860,415.935211 
	C337.228790,403.786438 348.150543,393.256927 360.326538,393.008850 
	C361.989594,392.974945 363.654327,393.026276 366.027191,393.346558 
	C376.120514,395.460907 381.647003,401.688507 385.463776,409.922516 
	C390.221893,420.187256 398.308441,425.159973 409.602905,425.009979 
	C413.427032,424.959198 417.274109,425.266418 421.073273,424.954132 
	C433.642578,423.920898 444.800446,430.364594 448.800049,444.772278 
z"/>
<path fill="#2D80B3" opacity="1.000000" stroke="none" 
	d="
M214.271362,264.908417 
	C217.308273,266.558594 220.617020,267.853821 223.327728,269.929932 
	C229.742218,274.842712 233.142715,281.440796 233.008606,289.683899 
	C232.946487,293.500885 232.979568,297.319427 232.666260,301.838409 
	C229.799622,313.232666 218.700851,321.310059 206.643265,321.169006 
	C167.653137,320.712830 128.654312,321.011047 89.658905,320.965363 
	C87.532082,320.962860 85.351212,320.694702 83.288643,320.178223 
	C73.654587,317.765717 68.364670,310.925476 65.163109,302.038849 
	C65.090515,298.366852 65.017921,294.694855 64.879471,290.573914 
	C65.186356,277.625519 71.645279,269.654510 83.842636,265.197754 
	C127.766861,264.931030 171.019119,264.919739 214.271362,264.908417 
M172.520157,305.000000 
	C180.833038,305.000000 189.145920,305.000000 197.458801,305.000000 
	C209.390549,305.000000 209.265717,305.001984 209.078705,293.142395 
	C209.026047,289.802155 207.884232,288.909027 204.708679,288.942993 
	C191.742081,289.081543 178.769257,289.178345 165.807205,288.898438 
	C161.581100,288.807159 160.892059,290.451019 160.927917,294.126373 
	C161.034027,304.998749 160.904343,305.000000 172.520157,305.000000 
M144.527420,294.311554 
	C142.674988,290.104309 139.204254,287.756256 135.065094,289.471863 
	C132.532913,290.521393 130.059769,293.715179 129.257751,296.444763 
	C128.187317,300.087830 130.650024,303.069336 134.273315,304.484222 
	C140.111298,306.763977 145.044357,302.302948 144.527420,294.311554 
M112.618530,304.988495 
	C117.051582,304.924683 120.415352,302.684845 120.634300,298.428925 
	C120.771217,295.767548 119.158707,292.032257 117.071243,290.532684 
	C115.195137,289.184937 110.972076,289.228577 108.938805,290.501953 
	C106.898621,291.779663 105.380875,295.294189 105.260124,297.903656 
	C105.081390,301.766174 108.014534,304.080933 112.618530,304.988495 
M84.885460,303.852203 
	C90.421555,305.861938 94.666519,304.377869 96.449348,299.809418 
	C98.041809,295.728790 96.052574,291.185150 91.868172,289.585175 
	C88.119537,288.151825 84.825096,289.151428 82.595360,292.337311 
	C79.774521,296.367828 80.569328,300.182465 84.885460,303.852203 
z"/>
<path fill="#2D80B3" opacity="1.000000" stroke="none" 
	d="
M214.637634,330.049072 
	C224.946991,332.186432 232.394592,340.933685 232.906708,351.750671 
	C233.117142,356.195526 232.966370,360.657471 232.665787,365.821472 
	C229.907928,377.058533 218.812637,385.314880 206.646057,385.170593 
	C167.655182,384.708130 128.655365,385.011047 89.659050,384.965332 
	C87.532181,384.962860 85.351295,384.694458 83.288643,384.178070 
	C73.653946,381.765930 68.365440,374.923981 65.162376,366.038452 
	C65.129379,361.240906 64.888855,356.433960 65.106094,351.647797 
	C65.574463,341.328979 72.088638,333.416168 83.374100,329.988342 
	C88.273659,329.636780 92.390839,329.052551 96.509308,329.043304 
	C129.940079,328.968414 163.371231,328.950562 196.801880,329.048370 
	C202.748062,329.065765 208.692429,329.699768 214.637634,330.049072 
M187.499863,353.000000 
	C182.512436,353.000000 177.525009,353.000000 172.537582,353.000000 
	C160.608566,353.000000 160.733627,352.998016 160.921158,364.859741 
	C160.973999,368.202148 162.118881,369.102692 165.293167,369.057190 
	C175.930801,368.904541 186.571991,368.999878 197.211823,368.999969 
	C209.925781,369.000122 209.846252,369.004974 209.058929,356.390594 
	C208.894943,353.763336 207.953262,352.925629 205.456406,352.971252 
	C199.805908,353.074554 194.152191,353.001404 187.499863,353.000000 
M81.817154,364.393433 
	C85.899940,369.952332 91.915688,370.580780 95.390923,365.728729 
	C97.694923,362.511871 97.686188,359.110321 95.187401,356.045013 
	C92.723831,353.022888 89.437767,352.028168 85.806145,353.759888 
	C81.599747,355.765625 80.201736,359.191986 81.817154,364.393433 
M105.200676,362.946899 
	C108.511002,369.545776 114.944145,371.078979 119.036949,366.181183 
	C121.422729,363.326111 122.189774,359.636169 119.679634,357.054749 
	C117.666779,354.984741 114.014671,353.195465 111.280716,353.437286 
	C106.805840,353.833160 104.727844,357.520813 105.200676,362.946899 
M142.922272,366.375610 
	C146.164139,360.874084 145.245499,356.176788 140.470123,353.837341 
	C136.180115,351.735657 131.142761,353.719482 129.513199,358.247650 
	C128.256531,361.739624 129.108841,364.857849 131.964401,367.141205 
	C135.385254,369.876526 138.956390,369.630707 142.922272,366.375610 
z"/>
<path fill="#E44042" opacity="1.000000" stroke="none" 
	d="
M272.904266,305.471680 
	C272.834015,302.541290 272.834015,300.075043 272.834015,297.094025 
	C264.986267,297.094025 257.263672,297.094025 249.278107,297.094025 
	C249.278107,291.661682 249.278107,286.737152 249.278107,280.999939 
	C259.698792,280.999939 270.247375,280.999939 280.795959,280.999939 
	C291.259735,280.999939 301.723511,280.999939 312.593384,280.999939 
	C312.593384,286.188873 312.593384,291.234436 312.593384,296.819855 
	C305.043640,296.819855 297.329315,296.819855 289.032318,296.819855 
	C289.032318,299.596832 289.032318,301.854034 289.099731,304.559235 
	C289.111420,342.630737 289.054016,380.254242 289.001587,417.877716 
	C288.991180,425.353912 289.000061,432.830078 289.000061,440.812317 
	C296.940552,440.812317 304.670410,440.812317 312.694397,440.812317 
	C312.694397,446.367493 312.694397,451.419830 312.694397,456.926880 
	C301.831085,456.926880 291.058746,457.102692 280.297272,456.837860 
	C276.163177,456.736084 273.714600,453.895813 273.121735,449.777191 
	C272.886475,448.142761 273.004089,446.453888 273.003632,444.789795 
	C272.990570,398.505157 272.983002,352.220490 272.904266,305.471680 
z"/>
<path fill="#EEBE34" opacity="1.000000" stroke="none" 
	d="
M448.840332,444.323059 
	C444.800446,430.364594 433.642578,423.920898 421.073273,424.954132 
	C417.274109,425.266418 413.427032,424.959198 409.602905,425.009979 
	C398.308441,425.159973 390.221893,420.187256 385.463776,409.922516 
	C381.647003,401.688507 376.120514,395.460907 366.489380,393.430969 
	C386.211456,393.151947 406.183289,392.866852 426.148010,393.126709 
	C438.444122,393.286743 448.503357,403.563629 448.886719,415.919922 
	C449.175537,425.228882 448.903137,434.555237 448.840332,444.323059 
z"/>
<path fill="#EEBE34" opacity="1.000000" stroke="none" 
	d="
M448.915070,291.566101 
	C445.440063,282.401428 439.570282,275.184479 429.257690,273.457306 
	C423.426727,272.480682 417.316589,272.815247 411.352875,273.061035 
	C398.760834,273.580017 390.025116,268.165039 384.890533,256.753387 
	C381.428009,249.057892 375.930511,243.705658 367.333252,241.387787 
	C386.738037,241.096298 406.373840,240.869934 426.004822,241.084885 
	C438.459564,241.221237 448.645386,251.706818 448.950378,264.229553 
	C449.152893,272.544830 449.027130,280.868103 449.136658,289.663605 
	C449.135681,290.518402 449.046387,290.897339 448.915070,291.566101 
z"/>
<path fill="#3A6896" opacity="1.000000" stroke="none" 
	d="
M214.584518,329.650391 
	C208.692429,329.699768 202.748062,329.065765 196.801880,329.048370 
	C163.371231,328.950562 129.940079,328.968414 96.509308,329.043304 
	C92.390839,329.052551 88.273659,329.636780 83.762955,330.001465 
	C82.713326,329.335693 82.192284,328.304321 81.379501,327.958344 
	C69.801750,323.030243 64.923218,315.620056 65.095718,302.478943 
	C68.364670,310.925476 73.654587,317.765717 83.288643,320.178223 
	C85.351212,320.694702 87.532082,320.962860 89.658905,320.965363 
	C128.654312,321.011047 167.653137,320.712830 206.643265,321.169006 
	C218.700851,321.310059 229.799622,313.232666 232.611649,302.308472 
	C232.920090,302.828033 232.979904,303.578613 233.089539,304.702820 
	C232.565125,316.345581 227.053986,324.002502 216.447372,327.969452 
	C215.746857,328.231445 215.167252,328.816772 214.584518,329.650391 
z"/>
<path fill="#3A6896" opacity="1.000000" stroke="none" 
	d="
M65.095055,366.478546 
	C68.365440,374.923981 73.653946,381.765930 83.288643,384.178070 
	C85.351295,384.694458 87.532181,384.962860 89.659050,384.965332 
	C128.655365,385.011047 167.655182,384.708130 206.646057,385.170593 
	C218.812637,385.314880 229.907928,377.058533 232.594574,366.287445 
	C235.080811,380.813660 222.329712,393.363647 207.566879,393.173431 
	C168.661484,392.672119 129.740280,392.641571 90.836082,393.187164 
	C75.854851,393.397278 63.435387,381.212952 65.095055,366.478546 
z"/>
<path fill="#3A9FC4" opacity="1.000000" stroke="none" 
	d="
M103.660568,113.143112 
	C111.694069,113.292160 119.446594,113.713562 127.204735,113.953163 
	C130.681656,114.060539 132.215454,114.676773 131.276413,118.944740 
	C128.885254,129.812546 129.162094,129.582352 118.435692,129.161774 
	C111.861359,128.903992 105.245903,129.694824 98.182205,129.997406 
	C99.604286,124.433815 101.493080,118.887604 103.660568,113.143112 
z"/>
<path fill="#3AA0C4" opacity="1.000000" stroke="none" 
	d="
M162.462860,92.204933 
	C159.804794,99.116440 156.786316,105.905563 153.612930,113.043083 
	C148.509140,111.108994 143.789398,109.320450 138.577805,107.345512 
	C141.246078,101.221161 143.681107,95.632179 146.152588,89.689728 
	C151.493500,90.251694 156.797958,91.167130 162.462860,92.204933 
z"/>
<path fill="#3AA0C4" opacity="1.000000" stroke="none" 
	d="
M430.966919,134.553711 
	C431.712189,140.324265 432.211243,145.828705 432.763824,151.923767 
	C428.248749,152.287354 424.025146,152.868332 419.809235,152.817261 
	C418.575897,152.802307 416.480469,151.134567 416.289856,149.975983 
	C415.250092,143.656693 414.681519,137.259888 413.982849,130.457626 
	C419.583435,131.446213 425.152069,132.866898 430.966919,134.553711 
z"/>
<path fill="#2D80B3" opacity="1.000000" stroke="none" 
	d="
M65.142548,238.077469 
	C65.099678,233.254135 64.885109,228.424988 65.048027,223.608627 
	C65.443298,211.922989 75.928658,201.132675 87.621727,201.081879 
	C128.556213,200.903976 169.492477,200.899185 210.426880,201.086548 
	C222.115723,201.140060 232.546906,211.960052 232.959366,223.662201 
	C233.117523,228.149109 232.974487,232.646637 232.665039,237.840546 
	C229.815842,249.204224 218.718704,257.310883 206.644714,257.169281 
	C167.658981,256.712036 128.664520,257.010986 89.673477,256.965546 
	C87.546715,256.963074 85.366669,256.695831 83.303230,256.182678 
	C73.666321,253.786133 68.395668,246.923676 65.142548,238.077469 
M187.499863,241.000000 
	C190.824814,241.000000 194.149750,241.000000 197.474701,241.000000 
	C209.397766,241.000000 209.271164,241.002045 209.079559,229.127884 
	C209.025391,225.770447 207.854004,224.898819 204.694489,224.943527 
	C194.056824,225.094040 183.415695,225.000168 172.775894,225.000031 
	C160.471405,224.999878 160.582535,224.996857 160.925415,237.121109 
	C161.013870,240.248230 162.121552,241.107986 165.055115,241.047104 
	C172.200653,240.898804 179.351334,240.999557 187.499863,241.000000 
M84.245499,226.577606 
	C80.089355,231.233978 79.914444,235.937134 83.923943,239.115875 
	C87.206512,241.718262 90.686409,241.724518 94.010155,239.167236 
	C97.194984,236.716858 98.042763,232.160248 95.780914,228.854736 
	C93.029694,224.834030 89.297714,223.926605 84.245499,226.577606 
M105.199928,231.048889 
	C104.967293,238.159836 109.652809,242.594467 115.403999,240.591080 
	C119.105820,239.301575 121.717133,236.377823 120.742531,232.667389 
	C120.016632,229.903870 117.569237,226.623489 115.039795,225.521622 
	C110.866768,223.703720 107.368942,226.074402 105.199928,231.048889 
M139.698349,225.471954 
	C135.262360,224.207779 131.839539,225.546036 129.801086,229.685974 
	C128.048706,233.244934 128.961792,236.493530 131.846695,239.068375 
	C135.246292,242.102585 140.476135,241.509903 143.278580,237.933609 
	C146.413223,233.933350 145.341507,229.408524 139.698349,225.471954 
z"/>
<path fill="#396896" opacity="1.000000" stroke="none" 
	d="
M65.091797,238.516205 
	C68.395668,246.923676 73.666321,253.786133 83.303230,256.182678 
	C85.366669,256.695831 87.546715,256.963074 89.673477,256.965546 
	C128.664520,257.010986 167.658981,256.712036 206.644714,257.169281 
	C218.718704,257.310883 229.815842,249.204224 232.609619,238.310654 
	C233.470551,251.810959 227.914474,260.012421 214.621323,264.695404 
	C171.019119,264.919739 127.766861,264.931030 84.121338,264.924866 
	C74.911560,261.926788 68.159157,256.752960 65.798645,247.300476 
	C65.129906,244.622559 65.271233,241.742371 65.091797,238.516205 
z"/>
<path fill="#396795" opacity="1.000000" stroke="none" 
	d="
M172.024170,305.000000 
	C160.904343,305.000000 161.034027,304.998749 160.927917,294.126373 
	C160.892059,290.451019 161.581100,288.807159 165.807205,288.898438 
	C178.769257,289.178345 191.742081,289.081543 204.708679,288.942993 
	C207.884232,288.909027 209.026047,289.802155 209.078705,293.142395 
	C209.265717,305.001984 209.390549,305.000000 197.458801,305.000000 
	C189.145920,305.000000 180.833038,305.000000 172.024170,305.000000 
z"/>
<path fill="#9DC030" opacity="1.000000" stroke="none" 
	d="
M144.664230,294.684387 
	C145.044357,302.302948 140.111298,306.763977 134.273315,304.484222 
	C130.650024,303.069336 128.187317,300.087830 129.257751,296.444763 
	C130.059769,293.715179 132.532913,290.521393 135.065094,289.471863 
	C139.204254,287.756256 142.674988,290.104309 144.664230,294.684387 
z"/>
<path fill="#DB4347" opacity="1.000000" stroke="none" 
	d="
M112.222069,304.960999 
	C108.014534,304.080933 105.081390,301.766174 105.260124,297.903656 
	C105.380875,295.294189 106.898621,291.779663 108.938805,290.501953 
	C110.972076,289.228577 115.195137,289.184937 117.071243,290.532684 
	C119.158707,292.032257 120.771217,295.767548 120.634300,298.428925 
	C120.415352,302.684845 117.051582,304.924683 112.222069,304.960999 
z"/>
<path fill="#E5BB39" opacity="1.000000" stroke="none" 
	d="
M84.565323,303.630615 
	C80.569328,300.182465 79.774521,296.367828 82.595360,292.337311 
	C84.825096,289.151428 88.119537,288.151825 91.868172,289.585175 
	C96.052574,291.185150 98.041809,295.728790 96.449348,299.809418 
	C94.666519,304.377869 90.421555,305.861938 84.565323,303.630615 
z"/>
<path fill="#396795" opacity="1.000000" stroke="none" 
	d="
M187.999817,353.000000 
	C194.152191,353.001404 199.805908,353.074554 205.456406,352.971252 
	C207.953262,352.925629 208.894943,353.763336 209.058929,356.390594 
	C209.846252,369.004974 209.925781,369.000122 197.211823,368.999969 
	C186.571991,368.999878 175.930801,368.904541 165.293167,369.057190 
	C162.118881,369.102692 160.973999,368.202148 160.921158,364.859741 
	C160.733627,352.998016 160.608566,353.000000 172.537582,353.000000 
	C177.525009,353.000000 182.512436,353.000000 187.999817,353.000000 
z"/>
<path fill="#E5BB39" opacity="1.000000" stroke="none" 
	d="
M81.649582,364.040253 
	C80.201736,359.191986 81.599747,355.765625 85.806145,353.759888 
	C89.437767,352.028168 92.723831,353.022888 95.187401,356.045013 
	C97.686188,359.110321 97.694923,362.511871 95.390923,365.728729 
	C91.915688,370.580780 85.899940,369.952332 81.649582,364.040253 
z"/>
<path fill="#DB4347" opacity="1.000000" stroke="none" 
	d="
M105.132996,362.560577 
	C104.727844,357.520813 106.805840,353.833160 111.280716,353.437286 
	C114.014671,353.195465 117.666779,354.984741 119.679634,357.054749 
	C122.189774,359.636169 121.422729,363.326111 119.036949,366.181183 
	C114.944145,371.078979 108.511002,369.545776 105.132996,362.560577 
z"/>
<path fill="#9DC030" opacity="1.000000" stroke="none" 
	d="
M142.647064,366.650452 
	C138.956390,369.630707 135.385254,369.876526 131.964401,367.141205 
	C129.108841,364.857849 128.256531,361.739624 129.513199,358.247650 
	C131.142761,353.719482 136.180115,351.735657 140.470123,353.837341 
	C145.245499,356.176788 146.164139,360.874084 142.647064,366.650452 
z"/>
<path fill="#396795" opacity="1.000000" stroke="none" 
	d="
M186.999908,241.000000 
	C179.351334,240.999557 172.200653,240.898804 165.055115,241.047104 
	C162.121552,241.107986 161.013870,240.248230 160.925415,237.121109 
	C160.582535,224.996857 160.471405,224.999878 172.775894,225.000031 
	C183.415695,225.000168 194.056824,225.094040 204.694489,224.943527 
	C207.854004,224.898819 209.025391,225.770447 209.079559,229.127884 
	C209.271164,241.002045 209.397766,241.000000 197.474701,241.000000 
	C194.149750,241.000000 190.824814,241.000000 186.999908,241.000000 
z"/>
<path fill="#E5BB39" opacity="1.000000" stroke="none" 
	d="
M84.567299,226.357086 
	C89.297714,223.926605 93.029694,224.834030 95.780914,228.854736 
	C98.042763,232.160248 97.194984,236.716858 94.010155,239.167236 
	C90.686409,241.724518 87.206512,241.718262 83.923943,239.115875 
	C79.914444,235.937134 80.089355,231.233978 84.567299,226.357086 
z"/>
<path fill="#DB4347" opacity="1.000000" stroke="none" 
	d="
M105.337341,230.678497 
	C107.368942,226.074402 110.866768,223.703720 115.039795,225.521622 
	C117.569237,226.623489 120.016632,229.903870 120.742531,232.667389 
	C121.717133,236.377823 119.105820,239.301575 115.403999,240.591080 
	C109.652809,242.594467 104.967293,238.159836 105.337341,230.678497 
z"/>
<path fill="#9DC030" opacity="1.000000" stroke="none" 
	d="
M140.052338,225.639465 
	C145.341507,229.408524 146.413223,233.933350 143.278580,237.933609 
	C140.476135,241.509903 135.246292,242.102585 131.846695,239.068375 
	C128.961792,236.493530 128.048706,233.244934 129.801086,229.685974 
	C131.839539,225.546036 135.262360,224.207779 140.052338,225.639465 
z"/>
</svg>