<svg version="1.1" id="Layer_1" xmlns="http://www.w3.org/2000/svg" xmlns:xlink="http://www.w3.org/1999/xlink" x="0px" y="0px"
	 width="100%" viewBox="0 0 512 512" enable-background="new 0 0 512 512" xml:space="preserve">
<path fill="#000000" opacity="1.000000" stroke="none" 
	d="
M276.000000,513.000000 
	C184.022324,513.000000 92.544647,513.000000 1.033484,513.000000 
	C1.033484,342.397308 1.033484,171.794586 1.033484,1.095938 
	C171.561035,1.095938 342.122131,1.095938 512.841614,1.095938 
	C512.841614,171.666550 512.841614,342.333252 512.841614,513.000000 
	C434.127899,513.000000 355.313934,513.000000 276.000000,513.000000 
M65.029907,302.902924 
	C65.231567,306.008179 65.006195,309.214874 65.715370,312.199524 
	C67.802483,320.983582 74.322754,325.686890 81.754608,329.637390 
	C72.895599,331.567871 65.019844,341.771698 65.013153,349.165588 
	C65.008072,354.778809 65.112740,360.392059 65.029861,366.902954 
	C65.019341,367.736115 65.106636,368.584015 64.983597,369.400208 
	C63.176178,381.389740 76.532890,393.432281 88.441864,393.245392 
	C129.262009,392.604736 170.098434,393.009247 210.928619,392.972687 
	C212.708176,392.971100 214.560226,392.791779 216.255020,392.283508 
	C228.395554,388.642578 233.606339,380.315369 232.945007,365.079895 
	C232.901520,358.937927 233.749573,352.624176 232.606842,346.694000 
	C230.866150,337.660614 224.125854,332.375000 216.260315,328.406830 
	C225.044876,326.371185 234.515030,315.846375 233.961838,305.002045 
	C246.919205,305.001404 259.876556,305.000763 272.970642,305.928986 
	C272.980438,351.922852 272.990784,397.916687 272.999634,443.910553 
	C273.002075,456.611908 273.384460,457.000000 285.966095,457.000000 
	C294.892517,457.000000 303.818939,457.000000 312.755981,457.000000 
	C312.755981,451.355835 312.755981,446.422119 312.755981,440.936798 
	C304.800812,440.936798 297.071777,440.936798 289.000000,440.936798 
	C289.000000,433.580231 288.991974,426.777496 289.001312,419.974731 
	C289.053925,381.649872 289.110718,343.324982 290.082581,305.000031 
	C305.670349,305.003723 321.258118,305.007416 336.984222,305.938019 
	C336.989471,309.594482 336.907654,313.253540 337.016998,316.906891 
	C337.297119,326.264648 347.713104,336.898102 357.070007,336.953003 
	C381.002625,337.093414 404.937042,337.086182 428.869781,336.956482 
	C438.190308,336.906006 448.778992,326.310425 448.954773,316.990784 
	C449.111389,308.687500 448.885834,300.377045 449.010223,291.562531 
	C449.054321,291.388489 449.098389,291.214417 449.850433,291.017700 
	C459.755371,284.665344 468.079071,276.508911 474.549652,266.838196 
	C488.378693,246.169586 492.744568,222.891647 487.658661,198.976212 
	C480.929688,167.334686 461.803802,145.143631 430.590454,133.154602 
	C425.078156,132.071030 419.565826,130.987442 413.979553,129.123169 
	C413.764313,128.697189 413.462433,128.293488 413.346222,127.842026 
	C405.509583,97.388168 389.537354,72.293724 364.537933,52.980480 
	C343.876831,37.018810 320.485535,27.471407 294.687927,25.323833 
	C281.016602,24.185740 266.777710,24.807529 253.310867,27.358196 
	C227.854034,32.179817 205.123993,43.846169 186.669540,62.206829 
	C177.735855,71.095100 170.758316,81.949524 162.195892,91.635101 
	C157.102173,90.812317 152.008469,89.989532 146.010818,89.028793 
	C126.533669,87.984398 112.739311,97.191681 102.063141,113.416321 
	C100.353294,118.896461 98.643440,124.376595 96.130974,129.984756 
	C95.060417,130.312256 94.004951,130.704544 92.917099,130.957718 
	C68.975174,136.529846 50.560581,149.619232 37.643707,170.689148 
	C23.159740,194.315308 21.334114,219.293869 29.067482,245.296417 
	C32.622822,257.250854 39.071274,267.884766 47.623642,276.875977 
	C52.719715,282.233551 59.119247,286.351288 64.988091,291.940338 
	C65.048309,295.295319 65.108528,298.650299 65.029907,302.902924 
M366.029755,393.045013 
	C363.199097,393.029999 360.367462,392.960510 357.537933,393.009827 
	C347.643921,393.182159 337.063568,403.738434 337.021942,413.659088 
	C336.945068,431.975677 336.919556,450.293365 337.032562,468.609589 
	C337.092529,478.329681 347.621643,488.919037 357.331177,488.963898 
	C381.142700,489.073914 404.955444,489.077026 428.766907,488.961304 
	C438.105072,488.915924 448.763702,478.360382 448.952301,469.034454 
	C449.120514,460.716034 448.885956,452.389435 448.988617,443.128693 
	C448.992279,433.304504 449.064087,423.479767 448.980103,413.656311 
	C448.898682,404.137360 438.798737,393.178375 429.369904,393.084076 
	C408.563141,392.876038 387.751862,393.114319 366.029755,393.045013 
z"/>
<path fill="#8ACCE7" opacity="1.000000" stroke="none" 
	d="
M64.932800,291.026398 
	C59.119247,286.351288 52.719715,282.233551 47.623642,276.875977 
	C39.071274,267.884766 32.622822,257.250854 29.067482,245.296417 
	C21.334114,219.293869 23.159740,194.315308 37.643707,170.689148 
	C50.560581,149.619232 68.975174,136.529846 92.917099,130.957718 
	C94.004951,130.704544 95.060417,130.312256 96.975159,129.965912 
	C104.943298,129.661804 112.082840,128.940414 119.187546,129.194260 
	C129.644974,129.567856 129.634384,129.864166 131.026291,119.470352 
	C131.092468,118.976250 131.080185,118.455658 131.236954,117.992233 
	C132.272858,114.930038 130.605347,114.117775 128.005249,114.021828 
	C119.550758,113.709839 111.096649,113.387474 102.642395,113.069107 
	C112.739311,97.191681 126.533669,87.984398 146.326721,89.406410 
	C143.991684,95.447952 141.340729,101.111877 138.495926,107.190002 
	C143.890259,109.249779 148.503510,111.011299 153.608795,112.960701 
	C156.774170,105.786568 159.834656,98.850174 162.895126,91.913773 
	C170.758316,81.949524 177.735855,71.095100 186.669540,62.206829 
	C205.123993,43.846169 227.854034,32.179817 253.310867,27.358196 
	C266.777710,24.807529 281.016602,24.185740 294.687927,25.323833 
	C320.485535,27.471407 343.876831,37.018810 364.537933,52.980480 
	C389.537354,72.293724 405.509583,97.388168 413.346222,127.842026 
	C413.462433,128.293488 413.764313,128.697189 413.967926,129.944183 
	C414.716522,136.981506 415.316864,143.224960 416.364502,149.392441 
	C416.588837,150.713058 418.419434,152.740265 419.535126,152.756851 
	C423.875031,152.821350 428.225037,152.207413 432.683594,151.836563 
	C432.058167,145.264084 431.512878,139.534012 430.967590,133.803925 
	C461.803802,145.143631 480.929688,167.334686 487.658661,198.976212 
	C492.744568,222.891647 488.378693,246.169586 474.549652,266.838196 
	C468.079071,276.508911 459.755371,284.665344 449.438538,290.561523 
	C449.011230,281.459351 449.174438,272.808502 448.938019,264.168579 
	C448.594086,251.599121 438.475311,241.238785 425.949188,241.091171 
	C406.333832,240.859955 386.712921,241.100204 366.634766,241.076218 
	C348.224274,239.074112 335.564819,251.826584 336.839386,270.091553 
	C337.647736,281.675140 336.897278,293.367523 336.845886,305.011108 
	C321.258118,305.007416 305.670349,305.003723 289.557129,304.552734 
	C289.031647,301.847046 289.031647,299.588684 289.031647,296.772461 
	C297.373871,296.772461 305.100708,296.772461 312.706573,296.772461 
	C312.706573,291.266541 312.706573,286.336456 312.706573,281.351868 
	C291.373016,281.351868 270.334747,281.351868 249.245728,281.351868 
	C249.245728,286.634491 249.245728,291.563263 249.245728,297.043701 
	C257.208130,297.043701 264.940155,297.043701 272.833923,297.043701 
	C272.833923,300.065582 272.833923,302.532867 272.833923,305.000122 
	C259.876556,305.000763 246.919205,305.001404 233.481842,304.642700 
	C232.949478,303.551361 232.897125,302.819366 232.901886,301.616943 
	C232.891205,295.820068 233.408813,290.406708 232.633240,285.185425 
	C231.040894,274.465668 223.527695,268.669220 214.443359,264.702850 
	C227.874466,260.014771 233.506302,251.756775 232.902847,237.616272 
	C232.971085,232.987274 233.061661,228.827164 232.979691,224.670471 
	C232.724228,211.714661 222.335236,201.085693 209.409729,201.048218 
	C169.153214,200.931534 128.895950,200.934937 88.639420,201.045700 
	C75.701851,201.081299 65.262444,211.691437 65.026802,224.617035 
	C64.945015,229.103607 65.104767,233.594589 65.103073,238.521500 
	C64.850067,252.510101 69.979927,259.555542 83.626305,265.148560 
	C71.337616,269.745697 64.767204,277.969025 64.932800,291.026398 
z"/>
<path fill="#EEDC9A" opacity="1.000000" stroke="none" 
	d="
M448.829132,444.066467 
	C448.885956,452.389435 449.120514,460.716034 448.952301,469.034454 
	C448.763702,478.360382 438.105072,488.915924 428.766907,488.961304 
	C404.955444,489.077026 381.142700,489.073914 357.331177,488.963898 
	C347.621643,488.919037 337.092529,478.329681 337.032562,468.609589 
	C336.919556,450.293365 336.945068,431.975677 337.021942,413.659088 
	C337.063568,403.738434 347.643921,393.182159 357.537933,393.009827 
	C360.367462,392.960510 363.199097,393.029999 366.771240,393.314789 
	C375.837555,395.736908 381.417542,401.017242 384.887573,408.748779 
	C390.023224,420.191345 398.812317,425.581421 411.410461,425.055634 
	C417.214691,424.813446 423.153229,424.471680 428.837189,425.382996 
	C439.410187,427.078125 445.550507,434.207977 448.829132,444.066467 
z"/>
<path fill="#EEDC9A" opacity="1.000000" stroke="none" 
	d="
M336.915070,305.474548 
	C336.897278,293.367523 337.647736,281.675140 336.839386,270.091553 
	C335.564819,251.826584 348.224274,239.074112 366.891785,241.300568 
	C375.898560,243.798447 381.447418,249.091446 384.921967,256.811066 
	C389.963165,268.011444 398.543915,273.570038 410.951477,273.022827 
	C414.103027,272.883850 417.265930,273.002045 420.423615,273.002289 
	C436.296600,273.003601 442.581787,277.222687 448.828918,292.069733 
	C448.885834,300.377045 449.111389,308.687500 448.954773,316.990784 
	C448.778992,326.310425 438.190308,336.906006 428.869781,336.956482 
	C404.937042,337.086182 381.002625,337.093414 357.070007,336.953003 
	C347.713104,336.898102 337.297119,326.264648 337.016998,316.906891 
	C336.907654,313.253540 336.989471,309.594482 336.915070,305.474548 
z"/>
<path fill="#2D80B3" opacity="1.000000" stroke="none" 
	d="
M215.852219,329.013794 
	C224.125854,332.375000 230.866150,337.660614 232.606842,346.694000 
	C233.749573,352.624176 232.901520,358.937927 232.678467,365.818848 
	C227.637024,379.809723 220.245789,384.998108 206.132690,384.998444 
	C167.496887,384.999390 128.861053,385.011475 90.225304,384.966644 
	C87.925102,384.963989 85.558388,384.765381 83.337128,384.204498 
	C73.699486,381.771027 68.355080,374.938995 65.168579,366.005310 
	C65.112740,360.392059 65.008072,354.778809 65.013153,349.165588 
	C65.019844,341.771698 72.895599,331.567871 82.405457,329.314514 
	C127.321617,328.998993 171.586914,329.006378 215.852219,329.013794 
M184.500031,353.000000 
	C180.335098,353.000000 176.168900,352.933105 172.005493,353.012482 
	C159.262985,353.255310 161.291565,350.828461 160.944290,364.122314 
	C160.849182,367.762756 161.983582,369.138336 165.759399,369.068146 
	C176.417892,368.869934 187.084473,369.129822 197.744156,368.966736 
	C210.793945,368.767181 208.743286,371.578888 209.042130,357.127686 
	C209.113388,353.682739 207.539597,352.894348 204.491058,352.960785 
	C198.163406,353.098602 191.830643,353.000885 184.500031,353.000000 
M90.172096,353.070740 
	C85.776260,352.735321 82.697784,354.637238 81.368118,358.798309 
	C80.231934,362.353912 81.503151,365.381256 84.499001,367.537659 
	C88.224831,370.219452 93.398544,369.072113 95.800392,365.155792 
	C98.570999,360.638184 96.730621,356.116943 90.172096,353.070740 
M119.400146,356.260834 
	C114.751320,352.097321 110.076523,351.917511 106.890816,355.928589 
	C104.291130,359.201813 104.279388,362.678375 106.834160,365.996460 
	C109.296211,369.194122 113.813522,370.037354 117.125038,367.770050 
	C121.133530,365.025574 122.062988,361.306427 119.400146,356.260834 
M144.174255,357.608582 
	C140.093658,352.051971 134.090759,351.416504 130.614853,356.261230 
	C128.314438,359.467560 128.315323,362.870361 130.809052,365.932495 
	C133.264862,368.948059 136.548401,369.962128 140.173477,368.227264 
	C144.356659,366.225220 145.791595,362.814941 144.174255,357.608582 
z"/>
<path fill="#2D80B3" opacity="1.000000" stroke="none" 
	d="
M214.062714,264.892822 
	C223.527695,268.669220 231.040894,274.465668 232.633240,285.185425 
	C233.408813,290.406708 232.891205,295.820068 232.685684,301.875824 
	C227.564484,315.857208 220.212128,320.998108 206.097366,320.998444 
	C167.470688,320.999359 128.843994,321.011505 90.217369,320.966553 
	C87.917801,320.963867 85.551743,320.763916 83.331100,320.202698 
	C73.696518,317.767883 68.354149,310.936707 65.168747,302.005280 
	C65.108528,298.650299 65.048309,295.295319 64.960442,291.483368 
	C64.767204,277.969025 71.337616,269.745697 84.003738,265.163940 
	C127.813019,264.912384 170.937866,264.902588 214.062714,264.892822 
M209.000000,296.526062 
	C208.986252,289.002991 208.986252,289.001526 201.444992,289.000366 
	C191.651428,288.998871 181.856186,288.885559 172.064697,289.028412 
	C159.235916,289.215546 161.278503,286.668579 160.949356,300.485229 
	C160.865646,303.999176 162.176636,305.095947 165.592575,305.054474 
	C177.542282,304.909363 189.494827,305.000549 201.446304,304.999542 
	C208.986328,304.998932 208.986328,304.997009 209.000000,296.526062 
M144.767685,298.940887 
	C145.034271,291.861084 140.350525,287.423340 134.598587,289.415741 
	C130.895721,290.698395 128.298508,293.624939 129.259430,297.318939 
	C129.976379,300.075012 132.428833,303.336945 134.955444,304.448914 
	C139.133255,306.287476 142.600021,303.891815 144.767685,298.940887 
M119.389771,301.743652 
	C119.901176,300.530457 120.661194,299.359833 120.877594,298.096130 
	C121.540451,294.225189 118.994476,290.296844 115.136124,289.325928 
	C111.091866,288.308258 107.921684,289.749298 105.931442,293.419128 
	C104.002106,296.976715 105.096779,301.326324 108.498459,303.534698 
	C112.231560,305.958252 115.733452,305.380035 119.389771,301.743652 
M95.401093,292.260895 
	C90.746460,288.095001 86.075958,287.915405 82.889877,291.927917 
	C80.290138,295.201996 80.278488,298.677673 82.834335,301.996460 
	C85.297951,305.195526 89.812340,306.040070 93.124771,303.770142 
	C97.129738,301.025665 98.069588,297.307922 95.401093,292.260895 
z"/>
<path fill="#E44042" opacity="1.000000" stroke="none" 
	d="
M272.902283,305.464539 
	C272.833923,302.532867 272.833923,300.065582 272.833923,297.043701 
	C264.940155,297.043701 257.208130,297.043701 249.245728,297.043701 
	C249.245728,291.563263 249.245728,286.634491 249.245728,281.351868 
	C270.334747,281.351868 291.373016,281.351868 312.706573,281.351868 
	C312.706573,286.336456 312.706573,291.266541 312.706573,296.772461 
	C305.100708,296.772461 297.373871,296.772461 289.031647,296.772461 
	C289.031647,299.588684 289.031647,301.847046 289.098877,304.552765 
	C289.110718,343.324982 289.053925,381.649872 289.001312,419.974731 
	C288.991974,426.777496 289.000000,433.580231 289.000000,440.936798 
	C297.071777,440.936798 304.800812,440.936798 312.755981,440.936798 
	C312.755981,446.422119 312.755981,451.355835 312.755981,457.000000 
	C303.818939,457.000000 294.892517,457.000000 285.966095,457.000000 
	C273.384460,457.000000 273.002075,456.611908 272.999634,443.910553 
	C272.990784,397.916687 272.980438,351.922852 272.902283,305.464539 
z"/>
<path fill="#EEBE34" opacity="1.000000" stroke="none" 
	d="
M448.908875,443.597595 
	C445.550507,434.207977 439.410187,427.078125 428.837189,425.382996 
	C423.153229,424.471680 417.214691,424.813446 411.410461,425.055634 
	C398.812317,425.581421 390.023224,420.191345 384.887573,408.748779 
	C381.417542,401.017242 375.837555,395.736908 367.227600,393.377502 
	C387.751862,393.114319 408.563141,392.876038 429.369904,393.084076 
	C438.798737,393.178375 448.898682,404.137360 448.980103,413.656311 
	C449.064087,423.479767 448.992279,433.304504 448.908875,443.597595 
z"/>
<path fill="#EEBE34" opacity="1.000000" stroke="none" 
	d="
M448.919556,291.816132 
	C442.581787,277.222687 436.296600,273.003601 420.423615,273.002289 
	C417.265930,273.002045 414.103027,272.883850 410.951477,273.022827 
	C398.543915,273.570038 389.963165,268.011444 384.921967,256.811066 
	C381.447418,249.091446 375.898560,243.798447 367.351379,241.365128 
	C386.712921,241.100204 406.333832,240.859955 425.949188,241.091171 
	C438.475311,241.238785 448.594086,251.599121 448.938019,264.168579 
	C449.174438,272.808502 449.011230,281.459351 449.084564,290.572845 
	C449.098389,291.214417 449.054321,291.388489 448.919556,291.816132 
z"/>
<path fill="#396896" opacity="1.000000" stroke="none" 
	d="
M65.099220,366.454132 
	C68.355080,374.938995 73.699486,381.771027 83.337128,384.204498 
	C85.558388,384.765381 87.925102,384.963989 90.225304,384.966644 
	C128.861053,385.011475 167.496887,384.999390 206.132690,384.998444 
	C220.245789,384.998108 227.637024,379.809723 232.621109,366.284943 
	C233.606339,380.315369 228.395554,388.642578 216.255020,392.283508 
	C214.560226,392.791779 212.708176,392.971100 210.928619,392.972687 
	C170.098434,393.009247 129.262009,392.604736 88.441864,393.245392 
	C76.532890,393.432281 63.176178,381.389740 64.983597,369.400208 
	C65.106636,368.584015 65.019341,367.736115 65.099220,366.454132 
z"/>
<path fill="#396896" opacity="1.000000" stroke="none" 
	d="
M65.099327,302.454102 
	C68.354149,310.936707 73.696518,317.767883 83.331100,320.202698 
	C85.551743,320.763916 87.917801,320.963867 90.217369,320.966553 
	C128.843994,321.011505 167.470688,320.999359 206.097366,320.998444 
	C220.212128,320.998108 227.564484,315.857208 232.628571,302.346283 
	C232.897125,302.819366 232.949478,303.551361 233.015015,304.650635 
	C234.515030,315.846375 225.044876,326.371185 216.056274,328.710327 
	C171.586914,329.006378 127.321617,328.998993 82.596893,329.000732 
	C74.322754,325.686890 67.802483,320.983582 65.715370,312.199524 
	C65.006195,309.214874 65.231567,306.008179 65.099327,302.454102 
z"/>
<path fill="#3AA0C4" opacity="1.000000" stroke="none" 
	d="
M102.352768,113.242714 
	C111.096649,113.387474 119.550758,113.709839 128.005249,114.021828 
	C130.605347,114.117775 132.272858,114.930038 131.236954,117.992233 
	C131.080185,118.455658 131.092468,118.976250 131.026291,119.470352 
	C129.634384,129.864166 129.644974,129.567856 119.187546,129.194260 
	C112.082840,128.940414 104.943298,129.661804 97.376465,129.901917 
	C98.643440,124.376595 100.353294,118.896461 102.352768,113.242714 
z"/>
<path fill="#3AA0C4" opacity="1.000000" stroke="none" 
	d="
M162.545502,91.774437 
	C159.834656,98.850174 156.774170,105.786568 153.608795,112.960701 
	C148.503510,111.011299 143.890259,109.249779 138.495926,107.190002 
	C141.340729,101.111877 143.991684,95.447952 146.778687,89.475388 
	C152.008469,89.989532 157.102173,90.812317 162.545502,91.774437 
z"/>
<path fill="#3AA0C4" opacity="1.000000" stroke="none" 
	d="
M430.779022,133.479263 
	C431.512878,139.534012 432.058167,145.264084 432.683594,151.836563 
	C428.225037,152.207413 423.875031,152.821350 419.535126,152.756851 
	C418.419434,152.740265 416.588837,150.713058 416.364502,149.392441 
	C415.316864,143.224960 414.716522,136.981506 414.004913,130.334534 
	C419.565826,130.987442 425.078156,132.071030 430.779022,133.479263 
z"/>
<path fill="#2D80B3" opacity="1.000000" stroke="none" 
	d="
M65.154198,238.083557 
	C65.104767,233.594589 64.945015,229.103607 65.026802,224.617035 
	C65.262444,211.691437 75.701851,201.081299 88.639420,201.045700 
	C128.895950,200.934937 169.153214,200.931534 209.409729,201.048218 
	C222.335236,201.085693 232.724228,211.714661 232.979691,224.670471 
	C233.061661,228.827164 232.971085,232.987274 232.686371,237.875000 
	C227.647766,251.620956 219.949417,256.998047 206.067734,256.998413 
	C167.463974,256.999451 128.860214,257.011200 90.256516,256.966949 
	C87.957733,256.964325 85.594154,256.768982 83.372292,256.215485 
	C73.731239,253.813690 68.419762,246.950577 65.154198,238.083557 
M173.514740,241.000000 
	C181.678574,241.000000 189.844345,241.112991 198.005814,240.973923 
	C210.727066,240.757141 208.752518,243.423431 209.039078,229.364349 
	C209.104279,226.165894 208.016129,224.922531 204.727844,224.953262 
	C191.566910,225.076233 178.403885,225.047668 165.242264,224.969711 
	C162.406235,224.952927 160.910370,225.712433 160.969101,228.893967 
	C161.244446,243.807373 159.130417,240.620758 173.514740,241.000000 
M91.685829,225.498657 
	C87.188301,224.188110 83.782997,225.625870 81.774078,229.805359 
	C80.032784,233.428070 81.068542,236.665268 84.040802,239.184662 
	C87.426521,242.054489 92.361824,241.464264 95.162102,238.025330 
	C98.410873,234.035614 97.382675,229.505463 91.685829,225.498657 
M106.597176,228.246628 
	C103.976692,233.825256 105.206024,238.277283 109.929764,240.315613 
	C114.136475,242.130829 118.913994,240.066238 120.479721,235.668686 
	C121.744370,232.116745 120.795631,228.995712 117.875534,226.773331 
	C114.152069,223.939575 110.453461,224.457336 106.597176,228.246628 
M138.937759,240.768723 
	C145.701416,237.401016 147.105484,230.570877 141.785187,226.653183 
	C138.791855,224.448990 135.077133,223.919296 132.661240,226.593018 
	C130.732605,228.727448 129.240753,232.425049 129.585678,235.174011 
	C130.115707,239.398331 133.775269,241.253998 138.937759,240.768723 
z"/>
<path fill="#396896" opacity="1.000000" stroke="none" 
	d="
M65.103073,238.521500 
	C68.419762,246.950577 73.731239,253.813690 83.372292,256.215485 
	C85.594154,256.768982 87.957733,256.964325 90.256516,256.966949 
	C128.860214,257.011200 167.463974,256.999451 206.067734,256.998413 
	C219.949417,256.998047 227.647766,251.620956 232.629776,238.345459 
	C233.506302,251.756775 227.874466,260.014771 214.443359,264.702850 
	C170.937866,264.902588 127.813019,264.912384 84.310745,264.906738 
	C69.979927,259.555542 64.850067,252.510101 65.103073,238.521500 
z"/>
<path fill="#396795" opacity="1.000000" stroke="none" 
	d="
M185.000000,353.000000 
	C191.830643,353.000885 198.163406,353.098602 204.491058,352.960785 
	C207.539597,352.894348 209.113388,353.682739 209.042130,357.127686 
	C208.743286,371.578888 210.793945,368.767181 197.744156,368.966736 
	C187.084473,369.129822 176.417892,368.869934 165.759399,369.068146 
	C161.983582,369.138336 160.849182,367.762756 160.944290,364.122314 
	C161.291565,350.828461 159.262985,353.255310 172.005493,353.012482 
	C176.168900,352.933105 180.335098,353.000000 185.000000,353.000000 
z"/>
<path fill="#E5BB39" opacity="1.000000" stroke="none" 
	d="
M90.556389,353.143860 
	C96.730621,356.116943 98.570999,360.638184 95.800392,365.155792 
	C93.398544,369.072113 88.224831,370.219452 84.499001,367.537659 
	C81.503151,365.381256 80.231934,362.353912 81.368118,358.798309 
	C82.697784,354.637238 85.776260,352.735321 90.556389,353.143860 
z"/>
<path fill="#DB4347" opacity="1.000000" stroke="none" 
	d="
M119.620697,356.581329 
	C122.062988,361.306427 121.133530,365.025574 117.125038,367.770050 
	C113.813522,370.037354 109.296211,369.194122 106.834160,365.996460 
	C104.279388,362.678375 104.291130,359.201813 106.890816,355.928589 
	C110.076523,351.917511 114.751320,352.097321 119.620697,356.581329 
z"/>
<path fill="#9DC030" opacity="1.000000" stroke="none" 
	d="
M144.336731,357.963135 
	C145.791595,362.814941 144.356659,366.225220 140.173477,368.227264 
	C136.548401,369.962128 133.264862,368.948059 130.809052,365.932495 
	C128.315323,362.870361 128.314438,359.467560 130.614853,356.261230 
	C134.090759,351.416504 140.093658,352.051971 144.336731,357.963135 
z"/>
<path fill="#396795" opacity="1.000000" stroke="none" 
	d="
M209.000000,296.999390 
	C208.986328,304.997009 208.986328,304.998932 201.446304,304.999542 
	C189.494827,305.000549 177.542282,304.909363 165.592575,305.054474 
	C162.176636,305.095947 160.865646,303.999176 160.949356,300.485229 
	C161.278503,286.668579 159.235916,289.215546 172.064697,289.028412 
	C181.856186,288.885559 191.651428,288.998871 201.444992,289.000366 
	C208.986252,289.001526 208.986252,289.002991 209.000000,296.999390 
z"/>
<path fill="#9DC030" opacity="1.000000" stroke="none" 
	d="
M144.631714,299.310486 
	C142.600021,303.891815 139.133255,306.287476 134.955444,304.448914 
	C132.428833,303.336945 129.976379,300.075012 129.259430,297.318939 
	C128.298508,293.624939 130.895721,290.698395 134.598587,289.415741 
	C140.350525,287.423340 145.034271,291.861084 144.631714,299.310486 
z"/>
<path fill="#DB4347" opacity="1.000000" stroke="none" 
	d="
M119.146019,302.047668 
	C115.733452,305.380035 112.231560,305.958252 108.498459,303.534698 
	C105.096779,301.326324 104.002106,296.976715 105.931442,293.419128 
	C107.921684,289.749298 111.091866,288.308258 115.136124,289.325928 
	C118.994476,290.296844 121.540451,294.225189 120.877594,298.096130 
	C120.661194,299.359833 119.901176,300.530457 119.146019,302.047668 
z"/>
<path fill="#E5BB39" opacity="1.000000" stroke="none" 
	d="
M95.622360,292.580994 
	C98.069588,297.307922 97.129738,301.025665 93.124771,303.770142 
	C89.812340,306.040070 85.297951,305.195526 82.834335,301.996460 
	C80.278488,298.677673 80.290138,295.201996 82.889877,291.927917 
	C86.075958,287.915405 90.746460,288.095001 95.622360,292.580994 
z"/>
<path fill="#396795" opacity="1.000000" stroke="none" 
	d="
M173.018967,241.000000 
	C159.130417,240.620758 161.244446,243.807373 160.969101,228.893967 
	C160.910370,225.712433 162.406235,224.952927 165.242264,224.969711 
	C178.403885,225.047668 191.566910,225.076233 204.727844,224.953262 
	C208.016129,224.922531 209.104279,226.165894 209.039078,229.364349 
	C208.752518,243.423431 210.727066,240.757141 198.005814,240.973923 
	C189.844345,241.112991 181.678574,241.000000 173.018967,241.000000 
z"/>
<path fill="#E5BB39" opacity="1.000000" stroke="none" 
	d="
M92.039810,225.663483 
	C97.382675,229.505463 98.410873,234.035614 95.162102,238.025330 
	C92.361824,241.464264 87.426521,242.054489 84.040802,239.184662 
	C81.068542,236.665268 80.032784,233.428070 81.774078,229.805359 
	C83.782997,225.625870 87.188301,224.188110 92.039810,225.663483 
z"/>
<path fill="#DB4347" opacity="1.000000" stroke="none" 
	d="
M106.843658,227.944183 
	C110.453461,224.457336 114.152069,223.939575 117.875534,226.773331 
	C120.795631,228.995712 121.744370,232.116745 120.479721,235.668686 
	C118.913994,240.066238 114.136475,242.130829 109.929764,240.315613 
	C105.206024,238.277283 103.976692,233.825256 106.843658,227.944183 
z"/>
<path fill="#9DC030" opacity="1.000000" stroke="none" 
	d="
M138.553879,240.843796 
	C133.775269,241.253998 130.115707,239.398331 129.585678,235.174011 
	C129.240753,232.425049 130.732605,228.727448 132.661240,226.593018 
	C135.077133,223.919296 138.791855,224.448990 141.785187,226.653183 
	C147.105484,230.570877 145.701416,237.401016 138.553879,240.843796 
z"/>
</svg>